<?xml version="1.0" standalone="no"?>
<!DOCTYPE svg PUBLIC "-//W3C//DTD SVG 20010904//EN"
 "http://www.w3.org/TR/2001/REC-SVG-20010904/DTD/svg10.dtd">
<svg version="1.0" xmlns="http://www.w3.org/2000/svg"
 width="600.000000pt" height="776.000000pt" viewBox="0 0 600.000000 776.000000"
 preserveAspectRatio="xMidYMid meet">
<g transform="translate(0.000000,776.000000) scale(0.100000,-0.100000)"
fill="#000000" stroke="none">
<path d="M3401 7198 c-5 -29 -36 -185 -68 -345 l-57 -293 36 -37 c60 -64 58
-38 58 -621 l0 -539 -61 -7 c-34 -4 -65 -4 -69 1 -4 4 -22 126 -40 270 l-32
263 21 26 c54 69 -12 165 -93 134 -59 -22 -68 -100 -17 -148 25 -25 29 -37 40
-147 7 -66 21 -180 32 -253 26 -178 27 -167 -28 -179 -27 -6 -49 -10 -50 -9
-1 1 -45 174 -98 385 -95 379 -96 384 -80 418 29 61 -6 123 -69 123 -84 0
-113 -87 -49 -148 l39 -37 94 -370 c51 -203 95 -375 97 -381 3 -9 -72 -44 -93
-44 -1 0 -22 55 -47 123 -25 67 -59 155 -76 195 -23 55 -28 79 -21 92 44 83
-54 175 -121 114 -50 -45 -42 -112 18 -143 33 -16 40 -30 109 -202 40 -101 73
-189 74 -195 0 -11 -99 -69 -105 -62 -1 2 -94 156 -205 343 -112 187 -234 391
-272 453 -72 119 -78 142 -58 226 8 38 7 41 -43 97 -211 233 -413 447 -419
443 -4 -3 2 -28 14 -57 11 -29 64 -171 117 -316 l97 -264 60 -22 c32 -12 66
-25 74 -29 8 -3 91 -133 185 -289 93 -155 216 -358 272 -451 57 -92 103 -172
103 -176 0 -13 -82 -62 -89 -53 -3 4 -19 28 -35 53 -16 25 -74 110 -129 190
-93 135 -100 148 -98 189 4 83 -78 123 -134 66 -50 -49 -22 -126 51 -141 18
-3 37 -17 47 -32 8 -15 67 -103 131 -196 64 -93 116 -171 116 -175 0 -3 -15
-18 -34 -33 l-33 -26 -164 196 c-90 108 -217 259 -282 335 -81 94 -117 143
-113 154 29 75 -81 137 -139 78 -49 -48 -15 -135 53 -135 24 0 43 -17 123
-112 52 -61 173 -204 269 -318 96 -113 181 -214 189 -223 12 -16 11 -21 -14
-47 -16 -17 -33 -30 -39 -30 -6 0 -71 60 -146 133 -74 73 -186 181 -247 240
-100 94 -113 111 -113 140 0 69 -91 105 -138 54 -29 -30 -30 -89 -2 -117 19
-19 27 -21 77 -24 18 -1 367 -319 492 -449 l33 -35 -27 -36 c-15 -20 -31 -36
-36 -36 -4 0 -116 80 -247 178 -131 97 -277 205 -324 239 -72 52 -87 67 -92
96 -13 72 -86 98 -136 49 -60 -61 -21 -150 61 -139 35 5 45 0 101 -42 49 -37
582 -428 596 -437 2 -1 -50 -92 -66 -114 -1 -2 -13 2 -25 10 -35 22 -699 398
-831 470 -84 46 -112 79 -122 142 -4 20 -14 40 -23 43 -86 35 -629 215 -640
213 -8 -2 36 -46 100 -99 63 -53 179 -153 259 -223 122 -106 149 -125 170
-121 96 20 134 18 185 -12 28 -16 82 -47 120 -68 39 -21 151 -84 250 -140 99
-56 256 -144 348 -195 94 -52 166 -98 163 -104 -3 -6 -15 -37 -28 -68 -13 -32
-28 -58 -34 -58 -6 0 -85 26 -175 59 -90 32 -279 98 -420 146 -248 84 -258 88
-280 123 -47 72 -149 46 -149 -37 1 -67 54 -102 116 -76 35 14 40 13 311 -81
152 -52 344 -118 427 -146 83 -28 152 -52 153 -53 2 -1 -4 -24 -12 -52 l-15
-51 -63 15 c-34 8 -185 43 -336 77 -220 50 -275 66 -283 82 -29 54 -92 61
-132 13 -64 -76 26 -178 105 -120 l29 22 313 -71 c171 -38 322 -72 333 -75 20
-4 21 -8 13 -52 -5 -25 -10 -47 -12 -49 -1 -1 -83 8 -182 20 -168 21 -182 24
-207 49 -66 66 -172 -1 -137 -85 21 -52 94 -66 135 -27 22 21 23 21 156 5 73
-9 154 -19 181 -22 l47 -6 0 -54 0 -54 -515 0 -516 0 -50 47 -50 47 -272 -54
c-150 -29 -301 -58 -336 -64 -83 -14 -89 -31 -14 -40 32 -4 184 -31 338 -60
l280 -53 37 32 c63 58 42 55 588 58 l509 2 6 -55 c4 -30 7 -62 8 -70 2 -11
-40 -21 -188 -46 -186 -30 -190 -31 -211 -13 -51 47 -134 8 -134 -62 0 -77 90
-110 140 -51 24 28 35 31 213 61 104 18 190 31 192 29 5 -5 34 -122 32 -125
-21 -20 -664 -223 -679 -214 -54 34 -128 -5 -128 -68 0 -85 113 -111 153 -34
12 23 53 39 333 135 175 60 325 110 332 111 7 1 24 -25 38 -58 40 -93 40 -88
-13 -114 -26 -12 -195 -101 -375 -197 -286 -153 -330 -173 -349 -164 -75 41
-146 -74 -84 -135 44 -44 135 -17 135 40 0 20 29 38 213 135 116 62 286 153
377 203 90 49 166 85 168 79 2 -6 21 -38 43 -72 21 -33 39 -62 39 -65 0 -2
-39 -34 -87 -71 -49 -38 -223 -174 -388 -304 -289 -227 -302 -236 -344 -236
-72 1 -109 -78 -62 -135 43 -53 140 -19 141 50 1 22 28 47 167 156 91 72 267
210 391 309 l224 179 27 -34 c14 -19 34 -42 44 -51 24 -25 31 -15 -120 -174
-120 -126 -142 -144 -169 -144 -48 0 -84 -34 -84 -79 0 -67 61 -107 119 -77
30 16 37 31 43 88 2 19 43 67 141 168 l139 141 45 -38 c25 -21 55 -45 66 -55
21 -16 21 -16 -31 -90 -28 -40 -160 -236 -293 -435 l-242 -362 -56 -20 c-31
-11 -65 -22 -76 -26 -15 -4 -45 -68 -129 -278 -60 -149 -117 -290 -128 -311
-35 -76 -18 -64 143 102 79 81 186 188 236 239 l93 91 -7 76 -6 76 288 433
c158 237 289 434 291 435 2 3 140 -73 154 -85 11 -9 -175 -363 -191 -363 -58
0 -89 -91 -46 -134 67 -67 180 3 137 85 -9 15 2 45 56 156 36 76 75 157 85
181 22 50 14 49 110 11 l77 -31 -28 -81 c-16 -45 -63 -192 -105 -327 -114
-367 -115 -370 -130 -370 -48 0 -70 -96 -30 -135 67 -68 174 10 130 94 -16 32
-15 36 94 384 61 194 113 364 117 380 9 38 14 39 84 23 80 -19 76 -8 52 -138
-11 -62 -26 -149 -33 -193 -10 -67 -17 -83 -41 -103 -59 -50 -24 -142 53 -142
68 0 104 80 61 135 -17 22 -17 29 12 220 l31 197 35 -6 c19 -3 54 -6 78 -6
l42 0 0 -510 c0 -563 3 -533 -64 -608 l-33 -37 68 -338 c37 -186 70 -341 73
-344 2 -3 8 12 11 33 16 98 59 325 91 483 l36 173 -35 37 c-67 71 -67 71 -67
236 l0 151 133 12 c1520 135 2443 1779 1772 3157 -351 720 -1123 1221 -1887
1225 -17 0 -18 15 -18 181 0 200 5 220 70 271 l28 23 -53 270 c-29 149 -58
303 -65 342 -15 90 -26 99 -39 31z m219 -1217 c44 -7 44 -7 15 -15 -98 -25
-161 -122 -153 -235 18 -255 330 -397 528 -241 l37 30 5 -49 c10 -98 80 -196
180 -248 72 -37 199 -40 267 -6 56 28 56 27 29 -33 -30 -67 -30 -195 -1 -276
11 -32 16 -58 12 -58 -23 0 -64 192 -53 249 8 39 2 42 -122 44 -157 3 -263 70
-326 204 -37 78 -34 76 -88 50 -65 -32 -205 -31 -274 1 -163 75 -216 195 -216
490 l0 102 58 -1 c31 0 77 -4 102 -8z m331 -74 c99 -75 129 -221 66 -316 -125
-188 -449 -97 -475 135 -17 155 157 246 293 153 86 -59 110 -174 47 -230 -53
-48 -150 -32 -173 28 -13 36 1 46 39 28 41 -21 72 -6 72 34 0 78 -96 105 -151
43 -78 -87 6 -222 138 -222 181 0 239 206 97 344 -50 48 -15 51 47 3z m220
-57 c85 -32 262 -118 319 -156 87 -58 135 -232 88 -319 -90 -167 -325 -164
-430 5 -74 120 -24 276 100 309 183 50 323 -211 160 -295 -73 -38 -179 42
-139 104 6 11 14 8 34 -12 62 -62 121 14 63 80 -69 81 -196 -16 -166 -126 39
-143 246 -160 321 -26 117 209 -181 445 -372 295 l-37 -28 -4 57 c-4 48 -13
78 -46 146 -3 5 4 6 14 2 11 -4 53 -21 95 -36z m584 -351 c97 -82 159 -145
130 -134 -57 21 -159 17 -207 -9 -27 -14 -48 -24 -48 -23 0 2 7 25 16 51 17
48 16 147 -2 191 -9 24 -8 23 111 -76z m-1241 -58 c17 -18 51 -47 76 -63 l45
-30 -55 6 c-30 3 -70 6 -87 6 l-33 0 0 78 c1 61 3 73 12 57 6 -11 25 -35 42
-54z m466 -111 c0 -6 11 -28 25 -50 33 -52 32 -53 -12 -34 -21 9 -65 25 -97
37 l-60 20 65 17 c82 22 79 22 79 10z m908 -46 c169 -84 207 -337 62 -412
-125 -64 -282 95 -191 192 34 36 51 34 44 -7 -10 -63 61 -113 100 -69 59 65
-6 182 -101 182 -148 0 -189 -235 -59 -334 175 -133 382 -6 365 225 -5 62 3
66 29 16 11 -22 16 -56 16 -107 0 -331 -401 -392 -545 -83 -116 248 64 505
280 397z m-1193 -25 c654 -131 1140 -731 1138 -1404 -2 -803 -695 -1431 -1505
-1365 -753 62 -1308 648 -1308 1382 0 852 847 1554 1675 1387z m735 -241 l0
-62 -42 40 c-24 23 -56 50 -72 62 l-29 22 72 0 71 0 0 -62z m847 -183 c104
-202 170 -418 153 -503 -66 -349 -520 -320 -520 33 0 251 304 372 411 163 82
-160 -71 -362 -209 -278 -79 49 -72 200 10 200 21 0 21 -1 7 -34 -27 -58 59
-106 95 -54 66 94 -59 201 -161 138 -168 -102 -43 -374 152 -331 277 62 240
529 -42 531 -51 0 -51 -5 -8 65 19 31 40 82 46 112 14 61 13 61 66 -42z m-527
-183 c40 -19 75 -27 127 -30 l72 -4 -30 -37 c-43 -54 -69 -130 -69 -202 0 -68
-11 -70 -30 -6 -10 39 -9 53 9 113 24 80 23 81 -62 109 -50 16 -67 27 -89 60
-33 49 -35 63 -5 41 12 -9 47 -29 77 -44z m24 -133 c-6 -11 -24 -2 -24 11 0 5
7 7 15 4 8 -4 12 -10 9 -15z m721 -544 c11 -229 -36 -355 -156 -418 -233 -123
-415 228 -202 390 48 37 143 44 190 14 114 -72 95 -259 -31 -301 -93 -30 -173
81 -109 153 25 27 43 22 37 -11 -11 -54 50 -84 80 -40 59 84 -46 174 -135 115
-132 -88 -48 -304 111 -283 210 28 253 337 59 429 -47 22 -50 25 -29 32 34 11
105 80 137 133 l28 47 7 -55 c3 -30 10 -122 13 -205z m-517 108 c24 -18 65
-40 92 -50 l49 -17 -45 -44 c-139 -133 -118 -356 44 -464 22 -15 21 -15 -31
-21 -225 -23 -355 -301 -230 -491 l25 -39 -40 7 c-118 18 -258 -59 -320 -179
-28 -53 -38 -189 -19 -243 l9 -23 -34 17 c-49 26 -173 31 -236 10 -105 -35
-198 -152 -209 -262 l-6 -54 -35 31 c-148 130 -391 80 -475 -99 -57 -122 -23
-263 80 -335 l45 -32 -29 -6 c-15 -4 -56 -7 -90 -8 l-63 -1 0 190 c0 218 5
235 86 317 112 111 285 135 408 56 43 -28 46 -27 71 42 46 126 195 225 338
225 82 0 97 9 97 55 0 71 57 192 117 250 33 31 134 82 181 91 35 7 38 17 22
73 -42 147 40 339 179 418 25 15 47 27 49 28 1 1 -12 33 -30 71 -49 104 -48
200 5 306 44 91 45 93 10 115 -75 46 -101 73 -108 110 -3 21 -9 49 -12 63 -4
18 4 11 28 -25 19 -27 53 -64 77 -82z m-41 -106 c10 -7 9 -16 -4 -41 l-17 -31
-7 30 c-15 66 -11 72 28 42z m-34 -444 c-35 -29 -37 -26 -22 44 l12 58 18 -40
19 -40 -27 -22z m557 -55 c-86 -404 -184 -548 -372 -548 -214 0 -296 286 -125
436 112 99 263 80 318 -41 73 -158 -99 -337 -233 -243 -75 52 -48 188 38 188
40 0 41 -3 14 -30 -36 -36 -16 -90 35 -90 30 0 65 44 65 81 0 170 -243 129
-258 -44 -12 -148 132 -239 273 -173 168 78 197 329 50 429 l-35 24 49 6 c62
7 116 35 160 81 46 47 47 44 21 -76z m-741 -406 c1 -13 -45 -39 -54 -30 -3 3
4 22 16 43 23 38 36 33 38 -13z m501 -229 c-102 -180 -249 -366 -317 -401
-224 -115 -437 107 -317 329 109 200 418 159 418 -56 0 -95 -68 -176 -161
-191 -77 -12 -163 52 -163 121 0 65 75 129 125 107 32 -15 32 -23 -5 -44 -53
-30 -36 -88 26 -88 83 0 111 117 42 175 -28 24 -39 27 -88 23 -233 -17 -199
-358 36 -358 180 0 308 211 225 370 l-19 36 67 0 c44 0 81 7 111 21 58 26 59
25 20 -44z m-811 -127 l-11 -46 -55 0 -55 0 63 49 c74 58 73 58 58 -3z m-383
-217 c-15 -17 -33 -44 -42 -60 -12 -23 -18 -27 -32 -20 -9 5 -46 15 -81 22
l-64 12 74 22 c41 12 94 31 119 42 56 25 60 22 26 -18z m412 -15 c169 -70 161
-297 -13 -354 -61 -20 -147 5 -178 53 -58 90 23 214 115 176 37 -15 36 -35 -2
-43 -54 -10 -61 -75 -11 -96 72 -29 140 56 107 135 -39 93 -177 102 -249 16
-117 -140 7 -328 203 -307 l55 6 -35 -20 c-112 -62 -291 14 -329 139 -56 189
153 372 337 295z m-818 -69 c0 -2 -14 -12 -32 -21 -17 -9 -53 -37 -80 -61
l-48 -46 0 61 0 61 58 4 c31 2 67 4 80 5 12 1 22 0 22 -3z m1155 -65 l60 -1
-45 -39 c-60 -53 -225 -180 -233 -180 -4 0 6 18 22 40 16 22 34 63 41 90 11
46 10 69 -6 122 -5 15 2 14 48 -7 37 -17 71 -25 113 -25z m-887 -96 c138 -57
174 -219 69 -311 -105 -92 -277 -38 -277 87 0 80 84 135 151 100 23 -13 27
-52 4 -44 -42 17 -82 -48 -49 -80 48 -48 134 -1 134 74 0 118 -141 171 -236
88 -128 -113 -61 -300 120 -332 46 -9 42 -17 -10 -18 -205 -2 -317 218 -188
371 60 72 193 103 282 65z m212 -183 c0 -16 74 -66 125 -83 l50 -17 -57 -25
c-54 -24 -253 -96 -265 -96 -3 0 16 19 42 42 52 46 84 105 85 156 0 17 5 32
10 32 6 0 10 -4 10 -9z"/>
<path d="M3295 5166 c-285 -40 -558 -179 -775 -397 -703 -705 -384 -1873 581
-2123 968 -250 1826 584 1584 1539 -159 628 -778 1064 -1390 981z m155 -60 c0
-2 -16 -13 -35 -25 -20 -11 -45 -37 -56 -56 l-22 -36 -23 35 c-13 19 -32 39
-41 45 -10 5 -15 12 -12 16 11 10 189 30 189 21z m169 -17 c75 -26 108 -165
56 -241 -91 -134 -280 -78 -280 84 0 55 3 62 33 89 96 86 248 -36 157 -126
-27 -28 -37 -30 -66 -15 -24 14 -25 40 0 40 45 0 52 53 9 69 -34 12 -59 1 -73
-33 -29 -68 15 -131 91 -131 114 0 156 161 63 240 -43 35 -40 41 10 24z m231
-62 l85 -31 -52 -7 c-29 -4 -68 -16 -87 -27 -38 -23 -46 -20 -46 15 0 13 -7
40 -15 59 -17 41 -26 42 115 -9z m-629 10 c182 -123 50 -428 -158 -363 -195
62 -149 339 50 302 105 -20 115 -196 12 -196 -33 0 -55 15 -55 37 0 7 9 13 20
13 27 0 44 34 30 60 -27 50 -110 1 -110 -64 0 -115 165 -141 222 -35 51 96
-14 239 -109 239 -28 0 -39 17 -16 23 43 11 82 6 114 -16z m-316 -103 c-18
-33 -25 -63 -25 -100 0 -62 2 -60 -42 -34 -19 11 -58 23 -87 27 l-54 8 63 44
c51 36 157 100 167 101 1 0 -9 -21 -22 -46z m1155 -12 c62 -52 54 -190 -15
-251 -122 -106 -300 -14 -282 146 17 150 247 154 247 5 0 -71 -81 -120 -124
-76 -30 29 -20 53 18 47 51 -8 65 56 15 72 -75 24 -137 -86 -82 -147 113 -127
295 52 198 195 -31 44 -22 47 25 9z m248 -201 c101 -104 132 -153 132 -210 -1
-165 -179 -257 -300 -154 -121 101 -72 306 73 306 116 0 180 -141 97 -215 -52
-47 -130 -21 -130 42 0 37 12 44 33 19 38 -44 86 6 53 56 -34 51 -116 25 -137
-43 -32 -109 103 -195 202 -129 149 99 47 340 -137 325 l-54 -5 7 36 c4 20 7
53 6 74 l-1 37 41 -32 c23 -18 74 -66 115 -107z m-919 68 c61 -82 210 -91 288
-17 27 25 25 26 41 -36 31 -122 148 -187 277 -153 l30 7 0 -83 c0 -137 77
-229 203 -244 55 -6 62 -12 35 -34 -99 -82 -60 -328 62 -386 42 -20 44 -29 9
-37 -41 -11 -121 -92 -141 -144 -27 -70 -23 -159 9 -220 l26 -50 -60 -1 c-136
0 -228 -93 -231 -233 -1 -48 -4 -57 -17 -52 -137 59 -259 18 -309 -104 l-13
-30 -38 38 c-74 74 -210 77 -269 7 -20 -25 -26 -21 -39 27 -33 126 -176 189
-311 137 l-50 -19 1 72 c2 146 -87 251 -224 264 -56 5 -54 2 -23 48 80 118 45
300 -71 370 l-35 21 54 31 c122 69 167 226 101 353 l-15 29 56 0 c132 0 224
100 225 243 0 37 2 67 4 67 3 0 20 -9 39 -20 74 -44 179 -36 255 20 40 29 92
111 92 145 0 24 14 18 39 -16z m-617 -19 c215 -60 152 -407 -66 -366 -140 26
-165 229 -33 264 89 24 166 -68 110 -130 -28 -31 -71 -21 -53 12 15 27 -11 54
-43 46 -57 -14 -44 -96 20 -122 71 -30 144 23 145 107 3 164 -211 203 -303 55
-20 -31 -23 -136 -5 -178 7 -14 3 -15 -34 -6 -28 7 -57 7 -93 0 -28 -6 -53 -9
-54 -8 -5 4 121 183 153 217 90 99 170 133 256 109z m1769 -387 c12 -26 30
-73 40 -103 l19 -54 -27 26 c-36 33 -85 58 -116 58 -36 0 -38 8 -11 47 13 20
29 53 36 74 13 45 22 38 59 -48z m-1986 -2 c150 -68 153 -290 6 -368 -147 -77
-297 49 -231 194 53 119 230 106 230 -16 0 -38 -31 -71 -65 -71 -29 0 -30 3
-13 30 27 42 -34 79 -73 44 -36 -32 -20 -92 31 -119 85 -44 173 18 173 121 0
156 -206 206 -313 76 -35 -43 -37 -39 -11 20 41 96 162 137 266 89z m1935
-140 c110 -58 107 -230 -3 -259 -81 -22 -152 63 -100 120 22 25 31 23 35 -9 6
-52 78 -39 78 14 0 32 -42 73 -75 73 -95 0 -146 -125 -84 -204 78 -100 220
-67 278 64 l20 45 0 -48 c3 -196 -276 -244 -360 -62 -73 157 72 340 211 266z
m-2175 -246 l42 -42 -35 -13 c-19 -7 -53 -29 -75 -49 l-40 -36 6 77 c4 42 12
110 19 150 l12 73 14 -59 c12 -46 25 -69 57 -101z m159 -96 c180 -45 215 -310
52 -389 -169 -81 -320 127 -181 249 79 69 211 -3 164 -88 -19 -33 -60 -42 -52
-12 10 41 -45 69 -75 39 -22 -22 -14 -75 14 -97 102 -80 224 61 154 177 -73
120 -277 69 -306 -76 -9 -44 -24 -30 -24 22 0 115 132 206 254 175z m2182 -88
c-17 -194 -21 -207 -45 -124 -8 28 -26 54 -55 80 l-44 39 49 22 c27 13 57 33
66 46 28 37 36 20 29 -63z m-157 -69 c116 -85 74 -272 -61 -272 -76 0 -128 90
-81 142 24 26 57 24 50 -4 -13 -49 49 -83 73 -39 30 58 -11 121 -79 121 -104
0 -155 -136 -84 -221 68 -80 163 -79 250 4 l33 31 -10 -34 c-41 -142 -271
-148 -339 -8 -84 174 103 386 248 280z m-2127 -297 c21 -8 47 -15 58 -15 19 0
18 -3 -10 -41 -16 -23 -32 -57 -36 -75 -3 -19 -10 -31 -15 -28 -12 7 -65 121
-90 194 l-19 55 37 -37 c21 -20 55 -44 75 -53z m369 -27 c68 -38 94 -88 94
-179 0 -113 -57 -179 -154 -179 -143 0 -209 184 -91 254 75 44 165 -27 119
-94 -8 -13 -12 -12 -26 8 -27 38 -83 20 -83 -28 0 -23 49 -60 79 -60 89 0 132
131 66 200 -127 132 -331 -36 -259 -215 13 -34 -22 0 -40 39 -81 171 126 349
295 254z m1523 -112 c87 -66 64 -212 -40 -246 -92 -31 -175 80 -109 145 26 27
41 30 65 15 13 -8 12 -11 -3 -23 -30 -21 -19 -61 18 -65 36 -4 55 18 55 65 0
99 -147 116 -195 23 -74 -143 96 -278 234 -187 72 48 105 172 65 249 l-16 31
46 -7 c25 -4 63 -2 86 4 59 16 59 11 -1 -85 -65 -104 -181 -233 -226 -251 -74
-31 -169 -4 -219 62 -44 57 -43 175 1 230 65 80 165 97 239 40z m-1147 -177
c118 -57 130 -248 20 -306 -94 -48 -197 12 -197 115 0 82 103 139 144 80 28
-39 18 -91 -11 -62 -28 27 -58 14 -58 -26 0 -76 90 -75 128 2 69 142 -149 229
-233 94 -101 -164 109 -356 267 -243 l35 25 32 -62 c18 -33 32 -62 30 -64 -4
-6 -176 37 -254 63 -103 34 -138 58 -160 108 -80 174 91 357 257 276z m781
-71 c78 -48 92 -160 26 -218 -93 -81 -237 20 -163 114 22 27 57 34 77 14 17
-17 15 -28 -7 -28 -24 0 -34 -25 -21 -51 26 -48 95 -11 95 50 0 123 -170 131
-206 10 -29 -94 28 -174 136 -195 37 -7 38 -7 15 -16 -63 -24 -154 23 -190 97
-73 150 98 310 238 223z m-1216 -58 c21 0 54 6 72 14 l34 14 4 -86 c2 -48 3
-89 2 -91 -4 -5 -144 95 -194 139 l-45 40 44 -15 c24 -8 61 -15 83 -15z m823
-10 c88 -55 83 -197 -9 -235 -92 -39 -180 72 -111 140 28 29 47 31 69 9 24
-23 19 -34 -13 -34 -48 0 -49 -60 -1 -75 70 -22 108 88 51 146 -98 97 -238
-64 -158 -182 59 -88 205 -84 258 6 l20 33 47 -46 c58 -58 57 -59 -94 -73
-169 -16 -230 4 -274 92 -74 144 81 302 215 219z m626 -78 l44 -8 -57 -37
c-59 -38 -152 -87 -164 -87 -4 0 2 10 14 23 28 29 52 89 52 126 l0 30 34 -20
c19 -11 53 -23 77 -27z"/>
<path d="M3370 4711 c0 -25 -84 -100 -141 -126 -56 -25 -70 -27 -135 -22 l-72
5 -12 -49 c-23 -96 -101 -176 -202 -208 l-37 -12 2 -87 c2 -100 -35 -196 -94
-246 l-31 -26 41 -60 c53 -80 65 -177 35 -301 -5 -22 -1 -27 38 -45 94 -42
165 -137 175 -238 l5 -51 93 0 c107 0 166 -30 221 -111 33 -50 29 -49 84 -29
65 23 119 19 185 -14 l57 -29 30 33 c48 55 120 85 204 85 l72 0 6 44 c14 89
101 179 201 208 22 6 41 12 43 13 1 1 -3 26 -9 55 -21 96 17 215 90 284 38 36
38 38 1 84 -60 75 -80 205 -46 299 l15 41 -55 27 c-85 42 -153 139 -162 235
l-4 47 -55 6 c-101 11 -212 85 -229 155 -7 26 -9 26 -64 7 -65 -23 -138 -19
-196 10 -56 28 -54 28 -54 16z m68 -261 c22 -85 43 -170 47 -187 12 -59 25
-35 25 45 0 44 3 126 6 184 l7 106 36 6 c20 3 46 9 58 12 35 10 44 -22 28 -92
-18 -79 -65 -313 -65 -325 0 -35 27 12 86 151 51 119 73 159 84 156 33 -10 90
-33 95 -38 3 -3 -40 -81 -95 -173 -55 -93 -97 -171 -94 -174 3 -3 61 54 130
127 69 73 129 132 133 132 6 0 51 -83 51 -95 0 -2 -53 -50 -117 -107 -148
-129 -146 -128 -140 -134 3 -3 77 35 165 84 l160 89 34 -20 c18 -11 34 -22 36
-23 2 -1 0 -13 -3 -26 -5 -21 -34 -38 -181 -103 -233 -105 -234 -110 -9 -60
183 42 175 42 190 -18 14 -54 28 -48 -160 -72 -240 -31 -240 -37 -5 -54 91 -7
177 -15 192 -17 l27 -5 -22 -33 c-12 -19 -27 -42 -33 -52 -10 -17 -163 1 -344
40 -3 1 -7 -3 -10 -8 -3 -6 65 -38 150 -72 l155 -62 3 -61 c2 -34 0 -61 -3
-61 -3 0 -82 38 -175 85 -235 118 -246 115 -74 -20 63 -49 124 -100 136 -112
l21 -23 -39 -40 -40 -40 -129 130 c-174 176 -175 175 -30 -57 120 -192 120
-193 63 -193 -24 0 -52 -3 -63 -5 -20 -6 -56 61 -143 262 -46 108 -51 76 -16
-109 39 -201 39 -206 18 -229 -14 -16 -19 -16 -47 -4 -18 7 -40 16 -50 19 -18
6 -19 16 -12 166 8 172 1 197 -28 97 -63 -217 -79 -257 -105 -264 -47 -11 -65
30 -40 92 57 140 84 235 69 235 -8 0 -135 -198 -144 -225 -2 -6 -24 0 -51 12
l-46 23 80 117 c119 174 112 176 -61 13 -141 -133 -144 -134 -158 -83 -17 59
-14 64 67 131 218 178 223 196 22 83 -78 -45 -144 -81 -145 -81 -1 0 -20 16
-41 35 l-38 35 162 77 c226 109 221 117 -31 48 -201 -55 -185 -56 -179 8 6 65
-8 58 179 91 87 16 162 32 166 36 10 9 -142 20 -269 20 l-94 0 -25 40 c-30 47
-30 52 -7 72 15 13 37 12 202 -14 273 -42 278 -32 28 53 -95 32 -172 60 -171
61 1 2 5 22 9 46 4 23 11 45 15 48 5 3 82 -24 171 -61 165 -68 228 -81 153
-33 -22 14 -102 66 -178 116 l-138 91 44 19 c25 11 47 25 51 31 5 7 43 -16
104 -62 244 -184 261 -188 117 -30 -55 60 -110 120 -124 135 l-24 28 19 36
c10 19 22 37 25 40 4 2 62 -64 129 -146 107 -132 140 -166 140 -144 0 3 -40
77 -90 163 -104 183 -99 167 -57 174 17 3 39 8 48 12 14 5 32 -25 94 -152 43
-87 79 -153 82 -147 2 7 -15 87 -37 179 l-41 168 27 28 c36 38 35 40 82 -141z"/>
<path d="M2703 6598 c-48 -13 -83 -60 -83 -115 0 -119 160 -159 215 -53 48 92
-33 195 -132 168z"/>
<path d="M1462 5740 c-91 -56 -70 -196 32 -215 76 -15 136 36 136 114 0 97
-88 150 -168 101z"/>
<path d="M843 4510 c-76 -46 -76 -154 0 -200 109 -67 227 60 155 167 -37 53
-100 67 -155 33z"/>
<path d="M887 3170 c-86 -68 -41 -210 66 -210 86 0 138 65 116 144 -21 77
-122 113 -182 66z"/>
<path d="M1091 2204 c-62 -79 34 -175 113 -113 33 26 36 84 6 117 -31 33 -92
30 -119 -4z"/>
<path d="M2593 1416 c-38 -17 -73 -69 -73 -109 0 -130 194 -162 231 -38 29 99
-67 187 -158 147z"/>
</g>
</svg>
